General

Format                           : MPEG-4
Format profile                   : Base Media
Codec ID                         : isom
File size                        : 34.3 MiB
Duration                         : 3mn 27s
Overall bit rate                 : 1 383 Kbps
Encoded date                     : UTC 2012-06-28 05:33:54
Tagged date                      : UTC 2012-06-28 05:33:54

Video
ID                               : 1
Format                           : AVC
Format/Info                      : Advanced Video Codec
Format profile                   : High@L3.0
Format settings, CABAC           : Yes
Format settings, ReFrames        : 2 frames
Codec ID                         : avc1
Codec ID/Info                    : Advanced Video Coding
Duration                         : 3mn 27s
Bit rate mode                    : Variable
Bit rate                         : 1 253 Kbps
Maximum bit rate                 : 4 728 Kbps
Width                            : 720 pixels
Height                           : 480 pixels
Display aspect ratio             : 16:9
Original display aspect ratio    : 16:9
Frame rate mode                  : Constant
Frame rate                       : 25.000 fps
Standard                         : NTSC
Color space                      : YUV
Chroma subsampling               : 4:2:0
Bit depth                        : 8 bits
Scan type                        : Progressive
Bits/(Pixel*Frame)               : 0.145
Stream size                      : 31.3 MiB (91%)


Audio
ID                               : 2
Format                           : MPEG Audio
Format version                   : Version 1
Format profile                   : Layer 3
Mode                             : Joint stereo
Mode extension                   : MS Stereo
Codec ID                         : 6B
Duration                         : 3mn 27s
Bit rate mode                    : Variable
Bit rate                         : 112 Kbps
Minimum bit rate                 : 32.0 Kbps
Maximum bit rate                 : 132 Kbps
Channel(s)                       : 2 channels
Sampling rate                    : 44.1 KHz
Compression mode                 : Lossy
Stream size                      : 2.78 MiB (8%)